<svg width="407" height="331" viewBox="0 0 407 331" fill="none" xmlns="http://www.w3.org/2000/svg">
<g clip-path="url(#clip0_66_4720)">
<path d="M208.775 281.083C208.674 280.576 208.065 278.244 206.239 277.535C204.717 276.927 203.804 278.042 201.37 278.143C199.239 278.244 196.703 277.535 195.283 276.116C193.964 274.798 193.964 273.176 194.066 267.804C194.066 254.018 193.761 256.046 194.066 251.383C194.268 247.43 194.471 247.024 194.167 245.707C193.153 241.449 189.602 238.814 186.559 236.584C181.689 232.935 177.023 231.718 176.008 231.516C172.559 230.603 166.067 229.083 160.791 232.124C158.255 233.644 155.212 235.671 155.922 239.523C156.835 244.693 162.617 243.781 163.125 243.578C165.356 242.666 170.226 240.841 173.878 241.247C175.501 241.449 178.95 243.071 179.66 243.781C182.095 246.213 183.617 250.369 182.095 251.991C181.283 252.903 179.762 252.903 179.559 252.802C177.631 252.194 177.226 251.89 176.414 251.383C172.965 249.153 167.791 250.268 166.98 250.572C162.415 251.788 160.081 255.032 158.965 256.451C155.922 260.607 155.618 264.864 155.516 266.79C155.415 268.716 155.009 275.203 159.777 280.88C163.429 285.239 169.516 288.381 174.892 287.57C177.327 287.266 180.066 286.86 182.602 284.833C183.82 283.819 184.733 282.704 186.356 282.704C187.674 282.603 188.689 283.414 190.008 284.326C194.066 287.266 196.196 288.685 197.007 289.09C199.442 290.104 203.399 290.509 206.138 288.178C207.964 286.658 209.384 283.819 208.775 281.083ZM176.921 272.973C173.472 274.697 168.806 273.784 166.675 270.845C164.748 268.108 165.661 264.864 165.864 263.851C166.067 263.141 167.081 259.188 170.936 257.566C171.646 257.262 174.487 256.147 177.428 257.667C180.167 259.188 180.878 262.026 180.979 262.432C182.298 266.689 180.472 271.149 176.921 272.973Z" fill="white"/>
<path d="M300.178 186.003C300.076 185.192 299.163 181.036 296.018 179.617C293.381 178.401 291.758 180.225 287.497 180.225C283.743 180.225 279.381 178.806 277.048 176.171C274.816 173.738 275.121 171.001 275.526 161.676C276.744 137.754 276.034 141.302 276.845 133.192C277.555 126.3 277.86 125.691 277.454 123.36C275.932 115.758 270.15 111.095 265.077 106.939C256.86 100.249 248.846 97.8163 247.122 97.2082C241.238 95.3836 230.079 92.14 220.644 97.1068C216.079 99.4382 210.703 102.783 211.514 109.473C212.63 118.495 222.673 117.38 223.688 117.076C227.644 115.656 236.267 112.92 242.455 113.933C245.194 114.44 251.179 117.582 252.295 118.9C256.252 123.259 258.585 130.658 255.846 133.395C254.426 134.814 251.788 134.713 251.382 134.612C248.035 133.497 247.325 132.888 246.006 131.875C240.122 127.719 231.195 129.341 229.673 129.645C221.659 131.368 217.297 136.842 215.369 139.173C209.688 146.066 208.877 153.465 208.471 156.81C208.166 160.155 206.949 171.407 214.558 181.644C220.543 189.551 230.789 195.43 240.223 194.518C244.484 194.112 249.252 193.605 253.817 190.463C256.049 188.943 257.773 187.017 260.512 187.017C262.846 187.017 264.469 188.334 266.802 190.159C273.7 195.531 277.048 198.268 278.57 198.978C282.628 200.904 289.526 201.917 294.598 198.268C298.352 195.633 301.091 190.767 300.178 186.003ZM245.6 169.379C239.412 172.116 231.398 170.089 227.948 164.818C224.804 159.953 226.63 154.377 227.238 152.553C227.644 151.337 229.774 144.545 236.571 142.112C237.789 141.707 242.861 139.882 247.73 142.822C252.397 145.66 253.411 150.627 253.513 151.438C255.643 158.838 252.092 166.44 245.6 169.379Z" fill="white"/>
<path d="M181.081 186.003C180.979 185.192 180.066 181.036 176.921 179.617C174.284 178.401 172.661 180.225 168.4 180.225C164.646 180.225 160.284 178.806 157.951 176.171C155.719 173.738 156.023 171.001 156.429 161.676C157.647 137.754 156.936 141.302 157.748 133.192C158.458 126.3 158.762 125.691 158.357 123.36C156.835 115.758 151.053 111.095 145.98 106.939C137.763 100.249 129.749 97.8163 128.024 97.2082C122.141 95.3836 110.982 92.14 101.547 97.1068C96.9821 99.4382 91.6054 102.783 92.417 109.473C93.5329 118.495 103.576 117.38 104.59 117.076C108.547 115.656 117.17 112.92 123.358 113.933C126.097 114.44 132.082 117.582 133.198 118.9C137.155 123.259 139.488 130.658 136.749 133.395C135.329 134.814 132.691 134.713 132.285 134.612C128.937 133.497 128.227 132.888 126.909 131.875C121.025 127.719 112.097 129.341 110.576 129.645C102.562 131.368 98.1994 136.842 96.2719 139.173C90.591 146.066 89.7794 153.465 89.3736 156.81C89.0693 160.155 87.8519 171.407 95.4604 181.644C101.446 189.551 111.692 195.43 121.126 194.518C125.387 194.112 130.155 193.605 134.72 190.463C136.952 188.943 138.676 187.017 141.415 187.017C143.749 187.017 145.372 188.334 147.705 190.159C154.603 195.531 157.951 198.268 159.473 198.978C163.53 200.904 170.429 201.917 175.501 198.268C179.254 195.633 181.994 190.767 181.081 186.003ZM126.604 169.379C120.416 172.116 112.402 170.089 108.953 164.818C105.808 159.953 107.634 154.377 108.243 152.553C108.648 151.337 110.779 144.545 117.576 142.112C118.793 141.707 123.865 139.882 128.735 142.822C133.401 145.66 134.416 150.627 134.517 151.438C136.546 158.838 132.995 166.44 126.604 169.379Z" fill="white"/>
<path d="M302.308 285.745C302.207 285.238 301.699 282.907 299.873 282.096C298.352 281.387 297.439 282.4 295.004 282.4C292.874 282.4 290.337 281.589 289.019 280.069C287.801 278.65 287.903 277.129 288.207 271.757C288.917 257.972 288.511 259.999 289.019 255.336C289.424 251.383 288.816 236.482 287.903 230.299C287.294 226.245 285.772 214.486 282.019 214.79C271.469 215.703 274.918 231.921 275.324 238.003C275.628 242.361 278.468 253.816 276.947 255.437C276.135 256.248 274.613 256.147 274.411 256.147C272.889 256.046 271.874 255.032 271.266 254.627C268.019 252.092 262.744 253.106 261.933 253.309C257.368 254.322 254.832 257.465 253.716 258.782C250.469 262.736 249.962 266.993 249.759 268.919C249.556 270.845 248.846 277.332 253.31 283.211C256.759 287.773 262.643 291.118 268.121 290.611C270.556 290.408 273.295 290.104 275.932 288.279C277.251 287.367 278.164 286.252 279.787 286.252C281.106 286.252 282.12 287.063 283.439 288.077C287.396 291.219 289.323 292.739 290.236 293.145C292.569 294.26 296.526 294.868 299.468 292.739C301.192 291.32 302.815 288.583 302.308 285.745ZM270.86 276.217C267.309 277.839 262.643 276.623 260.715 273.582C258.889 270.845 260.005 267.5 260.31 266.486C260.512 265.777 261.831 261.925 265.686 260.506C266.396 260.303 269.338 259.188 272.077 260.911C274.816 262.533 275.324 265.472 275.425 265.878C276.541 270.135 274.512 274.494 270.86 276.217Z" fill="white"/>
<path d="M77.0987 17.5359C69.6932 11.3527 57.9255 8.41318 34.2887 2.73679C19.6805 -0.810952 13.8981 -0.810952 9.2316 2.22997C1.82607 6.99408 0.101494 19.4619 4.88264e-05 25.8478C-0.304288 41.5592 5.78245 167.251 10.6518 182.658C14.2024 194.213 20.7964 196.342 27.8976 193.808C31.9554 192.389 33.68 187.625 34.7959 184.381C39.9696 169.075 30.941 159.851 34.8974 140.896C35.8104 136.233 37.1292 133.395 39.0566 130.962C44.4332 124.171 53.0561 123.056 56.3024 122.448C73.2438 118.9 89.3737 97.0054 94.3445 78.0503C99.6197 57.372 93.9387 31.7269 77.0987 17.5359ZM50.52 91.0249C46.3607 95.0794 38.0422 100.654 33.7815 97.9176C30.7381 95.9917 27.3904 48.2492 31.4482 45.7151C37.5349 41.9647 57.6212 53.1147 59.2443 69.5357C60.4617 80.8885 52.2446 89.3017 50.52 91.0249Z" fill="white"/>
<path d="M158.762 63.2512C154.197 61.2239 148.618 62.7444 145.067 65.2785C144.154 65.8867 138.676 69.8399 139.386 75.0094C139.995 79.3681 144.864 82.2063 148.415 83.0172C153.995 84.3349 156.835 80.9899 160.487 82.7131C164.241 84.5376 165.154 90.1127 165.559 93.0522C167.893 110.284 167.994 137.45 169.617 155.29C170.124 160.966 174.791 165.933 177.834 166.744C181.486 167.758 187.167 162.588 188.182 156.81C189.906 146.978 188.79 141.606 184.022 107.04C182.501 96.0932 181.486 89.5045 185.747 85.2472C188.993 82.0035 194.776 80.6858 199.442 81.9022C207.761 84.0308 208.978 92.8495 214.558 92.6468C218.717 92.444 222.978 87.2745 223.282 82.6117C223.891 74.604 213.239 68.0153 205.833 65.8867C198.022 63.6567 187.979 64.6703 180.066 68.9276C174.791 71.7658 172.762 74.7053 169.313 73.9958C164.241 72.7794 164.748 65.8867 158.762 63.2512Z" fill="white"/>
<path d="M88.1563 202.627C78.8233 196.139 62.8963 191.578 52.7517 197.457C34.1872 208.202 38.1436 251.383 54.4763 278.548C57.0125 282.704 71.6206 307.133 86.0259 303.991C97.0835 301.558 101.75 284.326 101.953 283.313C102.156 282.4 105.605 268.716 100.228 265.675C96.6777 263.648 91.8083 264.864 90.1852 271.352C88.4606 278.548 83.084 282.704 80.2435 283.11C75.577 283.819 69.1859 267.196 68.2729 264.763C64.0122 253.917 57.4182 218.845 62.8963 216.818C67.2585 215.196 80.345 221.278 83.7941 227.664C85.4172 230.603 85.6201 233.137 88.5621 235.874C89.0693 236.381 93.4315 240.436 96.7792 239.321C101.446 237.8 103.069 226.447 100.228 217.73C97.4893 209.317 90.9968 204.654 88.1563 202.627Z" fill="white"/>
<path d="M108.953 245.504C108.445 247.328 108.851 264.56 109.866 271.048C111.083 278.244 110.88 285.745 115.141 290.408C117.576 293.044 121.735 295.071 125.082 294.564C135.329 293.246 133.604 286.455 138.473 287.468C139.183 287.57 140.299 287.874 141.517 289.496C144.56 293.246 148.212 296.389 150.342 296.186C152.371 295.983 156.023 292.638 155.618 289.192C155.11 284.833 143.748 286.556 145.067 270.034C145.98 258.681 144.662 254.525 147.705 249.052C151.966 241.246 139.995 238.206 136.039 242.564C134.01 244.794 134.72 259.492 134.01 264.966C133.3 270.034 133.198 279.157 129.749 279.866C123.662 281.083 122.039 275.913 120.923 269.932C119.706 263.04 121.025 256.451 122.546 249.964C123.358 246.416 121.836 242.97 119.199 241.348C115.445 239.016 109.967 241.145 108.953 245.504Z" fill="white"/>
<path d="M243.329 269.195C243.836 267.37 243.43 250.138 242.415 243.651C241.198 236.454 241.401 228.953 237.14 224.29C234.706 221.655 230.546 219.628 227.199 220.134C216.953 221.452 218.677 228.244 213.808 227.23C213.098 227.129 211.982 226.824 210.764 225.203C207.721 221.452 204.069 218.31 201.939 218.513C199.91 218.715 196.258 222.06 196.664 225.507C197.171 229.865 208.533 228.142 207.214 244.664C206.301 256.017 207.62 260.173 204.576 265.647C200.316 273.452 212.286 276.493 216.243 272.134C218.271 269.904 217.561 255.206 218.271 249.733C218.982 244.664 219.083 235.542 222.532 234.832C228.619 233.616 230.242 238.785 231.358 244.766C232.575 251.659 231.256 258.247 229.735 264.735C228.923 268.282 230.445 271.729 233.082 273.351C236.836 275.682 242.314 273.553 243.329 269.195Z" fill="white"/>
<path d="M329.191 245.098C324.119 236.685 312.148 231.313 303.12 236.077C293.178 241.348 293.482 255.539 296.323 263.344C297.134 265.574 299.67 272.771 307.177 275.71C307.583 275.812 314.887 278.65 321.786 275.102C331.119 270.237 335.481 255.539 329.191 245.098ZM317.626 262.837C314.38 264.966 309.612 264.459 307.177 261.722C304.946 259.188 305.554 255.843 305.757 254.829C305.859 254.12 306.569 250.065 310.221 248.139C310.83 247.835 313.569 246.315 316.612 247.531C319.554 248.747 320.467 251.484 320.67 251.991C322.496 256.046 321.076 260.708 317.626 262.837Z" fill="white"/>
<path d="M320.771 128.023C327.162 112.717 325.742 107.243 330.51 100.452C331.322 99.2354 336.089 92.7481 344.307 90.7208C353.132 88.5922 360.639 92.8495 365.509 95.5863C370.581 98.5259 382.146 105.013 382.653 115.048C383.059 122.752 376.668 128.53 369.567 135.017C364.697 139.477 354.857 146.978 342.481 153.668C339.336 155.391 337.611 156.101 336.089 158.229C332.032 163.804 335.481 169.886 338.118 183.773C341.77 202.829 339.539 213.473 346.843 217.527C348.263 218.338 349.582 218.642 350.393 218.845C357.19 220.365 386.204 212.966 387.218 209.925C387.827 208.202 386.102 206.58 383.667 203.539C379.61 198.471 376.871 193.2 371.393 182.557C366.726 173.434 364.393 168.771 365.813 164.413C367.233 160.155 370.885 158.432 375.552 155.492C386.305 148.701 397.667 138.463 402.638 129.442C409.435 117.075 406.391 103.391 405.986 101.567C399.696 75.1108 366.827 66.4948 361.958 65.2785C354.045 63.2512 340.452 59.7034 325.641 66.0894C300.989 76.7326 296.627 104.912 295.917 109.27C294.903 115.758 293.178 126.705 299.772 132.28C304.033 135.929 311.945 137.348 316.612 134.105C318.844 132.381 319.757 130.354 320.771 128.023Z" fill="white"/>
<path d="M370.987 231.82C378.595 229.184 385.189 233.847 387.015 235.165C389.247 236.685 393.305 239.523 394.015 244.49C395.029 251.18 389.146 256.046 388.537 256.552C382.957 261.012 375.045 260.708 369.465 257.769C368.349 257.161 360.944 253.309 360.538 245.706C360.234 239.219 365.509 233.746 370.987 231.82Z" fill="white"/>
<path d="M164.849 221.582C164.849 218.744 172.863 213.169 178.646 210.432C183.008 208.405 186.863 206.58 188.892 209.215C190.312 211.04 190.819 214.892 189.5 216.818C187.066 220.67 182.298 216.818 175.907 222.596C174.284 224.015 169.719 225.941 167.487 225.434C165.458 224.927 164.748 223.102 164.849 221.582Z" fill="white"/>
</g>
<defs>
<clipPath id="clip0_66_4720">
<rect width="407" height="331" fill="white"/>
</clipPath>
</defs>
</svg>
