<svg width="455" height="337" viewBox="0 0 455 337" fill="none" xmlns="http://www.w3.org/2000/svg">
<path d="M233.449 310.997C233.336 310.437 232.658 307.857 230.622 307.072C228.926 306.399 227.908 307.633 225.195 307.745C222.82 307.857 219.993 307.072 218.41 305.502C216.94 304.044 216.94 302.25 217.053 296.306C217.053 281.053 216.714 283.296 217.053 278.137C217.279 273.763 217.505 273.314 217.166 271.856C216.035 267.146 212.078 264.23 208.685 261.763C203.258 257.725 198.056 256.379 196.926 256.155C193.081 255.146 185.844 253.463 179.964 256.828C177.137 258.51 173.745 260.753 174.537 265.015C175.554 270.735 182 269.726 182.565 269.501C185.053 268.492 190.48 266.473 194.551 266.922C196.36 267.146 200.205 268.94 200.996 269.726C203.71 272.417 205.406 277.015 203.71 278.81C202.806 279.819 201.109 279.819 200.883 279.707C198.735 279.034 198.282 278.698 197.378 278.137C193.533 275.67 187.766 276.903 186.862 277.24C181.773 278.586 179.173 282.174 177.929 283.745C174.537 288.343 174.197 293.053 174.084 295.184C173.971 297.315 173.519 304.493 178.833 310.773C182.904 315.596 189.689 319.072 195.682 318.175C198.396 317.839 201.449 317.39 204.276 315.147C205.632 314.026 206.65 312.792 208.459 312.792C209.929 312.68 211.06 313.577 212.53 314.586C217.053 317.839 219.428 319.409 220.332 319.857C223.046 320.979 227.456 321.428 230.509 318.848C232.544 317.166 234.128 314.026 233.449 310.997ZM197.943 304.268C194.099 306.175 188.897 305.166 186.523 301.913C184.374 298.885 185.392 295.296 185.618 294.175C185.844 293.39 186.975 289.016 191.272 287.221C192.063 286.885 195.229 285.651 198.509 287.333C201.562 289.016 202.353 292.156 202.466 292.605C204.049 297.315 202.014 302.25 197.943 304.268Z" fill="black"/>
<path d="M335.443 205.799C335.33 204.902 334.313 200.303 330.807 198.733C327.867 197.387 326.058 199.406 321.309 199.406C317.125 199.406 312.263 197.836 309.662 194.92C307.175 192.229 307.514 189.2 307.966 178.882C309.323 152.415 308.531 156.34 309.436 147.368C310.228 139.741 310.567 139.068 310.114 136.489C308.418 128.078 301.973 122.919 296.319 118.32C287.16 110.918 278.227 108.227 276.305 107.554C269.746 105.535 257.308 101.946 246.792 107.442C241.704 110.021 235.711 113.722 236.615 121.124C237.859 131.106 249.054 129.872 250.184 129.536C254.594 127.965 264.206 124.937 271.103 126.059C274.156 126.62 280.828 130.096 282.072 131.554C286.482 136.377 289.082 144.564 286.029 147.592C284.446 149.162 281.506 149.05 281.054 148.938C277.323 147.704 276.531 147.031 275.061 145.91C268.503 141.312 258.552 143.106 256.856 143.442C247.923 145.349 243.061 151.405 240.912 153.985C234.58 161.611 233.675 169.798 233.223 173.499C232.884 177.2 231.527 189.649 240.007 200.976C246.679 209.724 258.1 216.229 268.616 215.22C273.365 214.771 278.679 214.21 283.768 210.734C286.255 209.051 288.178 206.92 291.231 206.92C293.832 206.92 295.641 208.378 298.242 210.397C305.931 216.341 309.662 219.369 311.358 220.154C315.881 222.285 323.571 223.407 329.224 219.369C333.295 216.453 336.348 211.07 335.443 205.799ZM274.609 191.892C267.711 194.92 258.778 192.677 254.933 186.845C251.428 181.462 253.463 175.294 254.142 173.275C254.594 171.929 256.969 164.415 264.545 161.723C265.902 161.275 271.556 159.256 276.983 162.508C282.185 165.648 283.316 171.144 283.429 172.041C285.69 180.228 281.732 188.64 274.609 191.892Z" fill="black"/>
<path d="M202.692 205.799C202.579 204.902 201.562 200.303 198.056 198.733C195.116 197.387 193.307 199.406 188.558 199.406C184.374 199.406 179.512 197.836 176.911 194.92C174.423 192.229 174.763 189.2 175.215 178.882C176.572 152.415 175.78 156.34 176.685 147.368C177.476 139.741 177.816 139.068 177.363 136.489C175.667 128.078 169.222 122.919 163.568 118.32C154.409 110.918 145.476 108.227 143.554 107.554C136.995 105.535 124.557 101.946 114.041 107.442C108.952 110.021 102.959 113.722 103.864 121.124C105.108 131.106 116.302 129.872 117.433 129.536C121.843 127.965 131.455 124.937 138.352 126.059C141.405 126.62 148.077 130.096 149.321 131.554C153.731 136.377 156.331 144.564 153.278 147.592C151.695 149.162 148.755 149.05 148.303 148.938C144.571 147.704 143.78 147.031 142.31 145.91C135.751 141.312 125.801 143.106 124.105 143.442C115.172 145.349 110.309 151.405 108.161 153.985C101.829 161.611 100.924 169.798 100.472 173.499C100.133 177.2 98.7757 189.649 107.256 200.976C113.928 209.724 125.348 216.229 135.865 215.22C140.614 214.771 145.928 214.21 151.017 210.734C153.504 209.051 155.427 206.92 158.48 206.92C161.08 206.92 162.89 208.378 165.49 210.397C173.18 216.341 176.911 219.369 178.607 220.154C183.13 222.285 190.819 223.407 196.473 219.369C200.544 216.453 203.597 211.07 202.692 205.799ZM141.858 191.892C134.96 194.92 126.027 192.677 122.182 186.845C118.677 181.462 120.712 175.294 121.391 173.275C121.843 171.929 124.218 164.415 131.794 161.723C133.151 161.275 138.805 159.256 144.232 162.508C149.434 165.648 150.564 171.144 150.677 172.041C152.939 180.228 148.981 188.64 141.858 191.892Z" fill="black"/>
<path d="M337.705 316.156C337.592 315.596 337.027 313.016 334.991 312.119C333.295 311.334 332.277 312.455 329.564 312.455C327.189 312.455 324.362 311.558 322.892 309.876C321.535 308.306 321.648 306.623 321.988 300.679C322.779 285.427 322.327 287.67 322.892 282.511C323.344 278.137 322.666 261.65 321.648 254.809C320.97 250.323 319.274 237.314 315.09 237.65C303.33 238.659 307.175 256.604 307.627 263.333C307.966 268.155 311.132 280.828 309.436 282.623C308.531 283.52 306.835 283.408 306.609 283.408C304.913 283.296 303.782 282.174 303.104 281.726C299.485 278.922 293.605 280.043 292.701 280.268C287.612 281.389 284.786 284.866 283.542 286.324C279.923 290.698 279.358 295.408 279.132 297.539C278.906 299.67 278.114 306.848 283.089 313.353C286.934 318.399 293.492 322.1 299.598 321.54C302.312 321.315 305.365 320.979 308.305 318.96C309.775 317.951 310.793 316.717 312.602 316.717C314.072 316.717 315.203 317.614 316.673 318.736C321.083 322.213 323.231 323.895 324.249 324.343C326.85 325.577 331.26 326.25 334.539 323.895C336.461 322.325 338.27 319.297 337.705 316.156ZM302.652 308.979C298.694 310.773 293.492 309.427 291.344 306.063C289.309 303.035 290.552 299.334 290.892 298.212C291.118 297.427 292.588 293.165 296.885 291.595C297.676 291.371 300.955 290.137 304.008 292.044C307.061 293.838 307.627 297.09 307.74 297.539C309.775 304.941 306.044 307.408 302.652 308.979Z" fill="black"/>
<path d="M86.7897 19.4023C78.5352 12.561 65.4184 9.30862 39.0717 3.02811C22.6757 -0.897207 16.3435 -0.897207 11.142 2.46735C2.88744 7.73849 0.965153 21.5332 0.852078 28.5988C0.51285 45.9823 7.2974 185.051 12.612 202.098C16.5696 214.883 23.9196 217.238 31.8349 214.435C36.3579 212.864 38.2802 207.593 39.524 204.004C45.2909 187.069 35.2271 176.864 39.6371 155.891C40.6548 150.732 42.1248 147.592 44.2732 144.9C50.2662 137.386 59.8777 136.153 63.4961 135.48C82.6059 131.554 100.585 107.329 106.013 86.357C111.893 63.478 105.447 35.1036 86.7897 19.4023ZM57.0508 100.712C52.4147 105.199 43.1425 111.367 38.3933 108.339C35.001 106.208 31.2695 53.3843 35.7925 50.5805C42.5771 46.4309 64.9661 58.7676 66.7753 76.9363C68.1322 89.4973 58.9731 98.8059 57.0508 100.712Z" fill="black"/>
<path d="M177.703 69.9828C172.614 67.7398 166.395 69.4221 162.437 72.2259C161.42 72.8988 155.314 77.2727 156.105 82.9925C156.784 87.815 162.211 90.9552 166.169 91.8525C172.388 93.3104 175.554 89.6094 179.625 91.516C183.809 93.5347 184.827 99.7031 185.279 102.956C187.88 122.021 187.993 152.078 189.802 171.817C190.367 178.097 195.569 183.593 198.961 184.49C203.032 185.611 215.244 183.817 216.94 175.63C219.202 164.863 213.209 157.237 208.007 119.105C206.311 106.993 204.276 101.161 208.912 96.4507C212.53 92.8618 217.958 89.3851 223.159 90.7309C232.431 93.0861 233.788 102.843 240.008 102.619C244.644 102.395 249.393 96.675 249.732 91.516C250.411 82.656 238.538 75.3661 230.283 73.0109C221.576 70.5436 212.869 70.4314 204.049 75.1418C198.169 78.2821 197.943 81.7588 194.099 80.8616C188.332 79.5157 184.487 72.8988 177.703 69.9828Z" fill="black"/>
<path d="M99.0019 224.192C88.5989 217.014 70.846 211.967 59.5384 218.472C38.8455 230.36 43.2555 278.137 61.4607 308.194C64.2876 312.792 80.5705 339.82 96.6273 336.344C108.953 333.652 114.154 314.586 114.38 313.465C114.606 312.455 118.451 297.315 112.458 293.95C108.5 291.707 103.073 293.053 101.263 300.231C99.3411 308.194 93.3481 312.792 90.182 313.24C84.9805 314.025 77.8567 295.633 76.839 292.941C72.0898 280.941 64.7399 242.136 70.846 239.893C75.7083 238.099 90.2951 244.828 94.1396 251.893C95.9489 255.146 96.175 257.95 99.4542 260.978C100.02 261.538 104.882 266.024 108.613 264.791C113.815 263.109 115.624 250.547 112.458 240.902C109.518 231.594 102.168 226.435 99.0019 224.192Z" fill="black"/>
<path d="M122.182 271.632C121.617 273.651 122.069 292.717 123.2 299.894C124.557 307.857 124.331 316.156 129.08 321.315C131.794 324.231 136.43 326.474 140.161 325.914C151.582 324.456 149.66 316.941 155.087 318.063C155.879 318.175 157.123 318.512 158.48 320.306C161.872 324.456 165.943 327.932 168.317 327.708C170.579 327.484 174.65 323.783 174.197 319.97C173.632 315.147 160.967 317.054 162.437 298.773C163.455 286.212 161.985 281.614 165.377 275.557C170.127 266.922 156.784 263.557 152.374 268.38C150.112 270.847 150.904 287.109 150.112 293.165C149.321 298.773 149.207 308.867 145.363 309.652C138.578 310.997 136.769 305.278 135.525 298.661C134.168 291.034 135.638 283.744 137.335 276.567C138.239 272.641 136.543 268.828 133.603 267.034C129.419 264.454 123.426 266.81 122.182 271.632Z" fill="black"/>
<path d="M272.686 295.408C273.139 293.277 272.008 274.436 270.538 267.146C268.955 259.183 268.729 250.996 263.753 245.949C260.926 243.145 256.29 241.127 252.446 241.8C241.138 243.706 243.4 251.108 237.859 250.211C237.067 250.099 235.824 249.762 234.354 248.192C230.735 244.155 226.551 240.902 224.29 241.239C222.028 241.575 218.184 245.389 218.749 249.202C219.541 254.024 232.092 251.669 231.301 269.95C230.735 282.511 232.431 286.997 229.265 293.277C224.855 302.137 238.311 304.941 242.495 299.894C244.644 297.315 243.174 281.165 243.739 274.997C244.304 269.277 243.965 259.295 247.81 258.398C254.594 256.828 256.63 262.436 258.1 268.94C259.796 276.455 258.552 283.857 257.195 291.147C256.517 295.072 258.326 298.885 261.266 300.567C265.789 302.81 271.669 300.231 272.686 295.408Z" fill="black"/>
<path d="M367.783 271.183C362.129 261.875 348.786 255.931 338.723 261.202C327.641 267.034 327.98 282.735 331.147 291.371C332.051 293.838 334.878 301.801 343.246 305.053C343.698 305.165 351.839 308.306 359.529 304.38C369.819 298.997 374.794 282.735 367.783 271.183ZM354.892 290.81C351.274 293.165 345.96 292.604 343.246 289.576C340.758 286.773 341.436 283.072 341.663 281.95C341.776 281.165 342.567 276.679 346.638 274.548C347.316 274.212 350.369 272.529 353.762 273.875C357.041 275.221 358.059 278.249 358.285 278.81C360.207 283.296 358.624 288.455 354.892 290.81Z" fill="black"/>
<path d="M358.285 141.648C365.409 124.713 363.825 118.657 369.14 111.143C370.045 109.797 375.359 102.619 384.518 100.376C394.356 98.0208 402.724 102.731 408.151 105.759C413.805 109.012 426.696 116.189 427.261 127.292C427.713 135.816 420.59 142.209 412.674 149.386C407.247 154.321 396.278 162.62 382.483 170.022C378.978 171.929 377.055 172.714 375.359 175.069C370.836 181.238 374.681 187.967 377.621 203.332C381.691 224.416 379.204 236.192 387.345 240.678C388.928 241.575 390.398 241.912 391.303 242.136C398.879 243.818 431.219 235.631 432.349 232.267C433.028 230.36 431.106 228.566 428.392 225.201C423.869 219.594 420.816 213.762 414.71 201.986C409.508 191.892 406.907 186.733 408.49 181.91C410.073 177.2 414.144 175.294 419.346 172.041C431.332 164.527 443.996 153.2 449.537 143.218C457.113 129.536 453.721 114.395 453.268 112.376C446.258 83.1046 409.621 73.5717 404.194 72.2259C395.374 69.9828 380.221 66.0575 363.712 73.1231C336.235 84.899 331.373 116.077 330.581 120.9C329.45 128.078 327.528 140.19 334.878 146.358C339.627 150.396 348.447 151.966 353.649 148.377C356.136 146.47 357.267 144.227 358.285 141.648Z" fill="black"/>
<path d="M414.257 256.492C422.738 253.576 430.088 258.735 432.123 260.193C434.611 261.875 439.134 265.015 439.926 270.511C441.056 277.913 434.498 283.296 433.819 283.857C427.6 288.791 418.78 288.455 412.561 285.202C411.317 284.53 403.063 280.268 402.611 271.856C402.384 264.679 408.151 258.622 414.257 256.492Z" fill="black"/>
<path d="M184.487 245.164C184.487 242.024 193.42 235.856 199.866 232.828C204.728 230.584 209.025 228.566 211.286 231.482C212.869 233.5 213.435 237.762 211.965 239.893C209.251 244.155 203.936 239.893 196.813 246.286C195.003 247.856 189.915 249.987 187.427 249.426C185.279 248.865 184.487 246.847 184.487 245.164Z" fill="black"/>
</svg>
