<svg width="304" height="68" viewBox="0 0 304 68" fill="none" xmlns="http://www.w3.org/2000/svg">
<path d="M14.4455 2.353L10.5598 19.3311L25.1573 9.64419L27.9928 11.5191L16.6509 27.8722L14.4455 26.414L18.8563 20.0602L23.7921 13.2898L9.1946 22.7684L7.61933 21.7268L11.4 4.85283L6.8842 11.8316L2.47344 18.1853L0.268066 16.7271L11.61 0.373962L14.4455 2.353Z" fill="black"/>
<path d="M29.8832 35.0592C29.8832 34.7467 29.9882 34.2259 30.3033 33.4968C28.728 34.0176 27.1528 33.9135 25.6825 33.1844C24.4223 32.4552 23.4771 31.6219 23.0571 30.372C22.637 29.2263 22.742 28.0805 23.2671 26.9348C24.0022 25.5807 25.0524 24.8515 26.5226 24.6432C27.9929 24.4349 29.6732 24.8516 31.4585 25.789L33.6639 26.9348L34.189 25.8932C34.609 25.164 34.7141 24.3308 34.504 23.7058C34.294 22.9767 33.6639 22.3517 32.8237 21.9351C31.9836 21.5184 31.2485 21.3101 30.5133 21.5184C29.7782 21.6226 29.2531 21.9351 28.9381 22.56L26.7327 21.4143C27.0477 20.7893 27.6778 20.2685 28.413 19.8519C29.1481 19.4352 30.0933 19.3311 31.0384 19.4352C31.9836 19.5394 33.0338 19.7477 33.9789 20.2685C35.4492 21.1018 36.4994 22.0392 36.9194 23.2892C37.3395 24.5391 37.2345 25.789 36.6044 27.0389L33.3488 32.976C32.7187 34.1218 32.4037 35.1634 32.2986 36.1008L32.1936 36.3092L29.8832 35.0592ZM27.1528 31.3095C27.8879 31.7261 28.623 31.8303 29.4632 31.8303C30.3033 31.8303 31.0384 31.622 31.5635 31.1012L33.0338 28.393L31.2485 27.4556C28.518 25.9973 26.7327 26.1015 25.8925 27.6639C25.4725 28.393 25.4725 29.018 25.6825 29.6429C25.8925 30.4762 26.4176 30.997 27.1528 31.3095Z" fill="black"/>
<path d="M48.0513 29.6429C47.7363 29.4346 47.3162 29.2263 47.0011 29.018C45.5309 28.2888 44.1657 28.4972 43.0105 29.5388L38.5997 39.0173L36.2893 37.9757L42.3804 24.5391L44.5857 25.5807L43.9556 27.1431C45.2158 26.3098 46.5811 26.2056 48.0513 26.8306C48.4714 27.0389 48.7865 27.2472 48.9965 27.4556L48.0513 29.6429Z" fill="black"/>
<path d="M51.727 42.6629C52.5672 42.9754 53.4073 42.9754 54.2475 42.7671C55.0876 42.4546 55.7177 42.0379 56.0328 41.3088L58.2382 42.1421C57.9231 42.8712 57.293 43.6004 56.5579 44.1212C55.8227 44.642 54.8776 44.9544 53.8274 45.0586C52.7772 45.1627 51.8321 45.0586 50.8869 44.642C48.9966 43.9128 47.7363 42.6629 47.1062 40.9964C46.4761 39.3298 46.5812 37.3508 47.4213 35.2676L47.5263 34.8509C48.0514 33.4968 48.7865 32.4552 49.6267 31.622C50.5718 30.7887 51.517 30.2679 52.6722 30.0596C53.8274 29.8512 54.9826 29.9554 56.2428 30.4762C57.8181 31.1011 58.8683 32.0386 59.6034 33.3927C60.2335 34.7467 60.3385 36.1008 59.8134 37.6632L57.608 36.83C57.9231 35.8925 57.8181 35.0592 57.503 34.226C57.083 33.3927 56.4528 32.8719 55.6127 32.4552C54.4575 32.0386 53.3023 32.0386 52.3571 32.6636C51.307 33.2885 50.5718 34.3301 49.9417 35.9967L49.7317 36.4133C49.1016 37.9757 48.9966 39.3298 49.3116 40.4756C49.7317 41.413 50.4668 42.2463 51.727 42.6629Z" fill="black"/>
<path d="M68.9498 50.4749C68.9498 50.1624 68.9498 49.6416 69.0548 48.9125C67.5846 49.7458 66.0093 49.85 64.434 49.3292C63.0688 48.9125 62.0186 48.1834 61.3885 47.0376C60.7584 45.996 60.6534 44.8503 60.9684 43.6004C61.3885 42.1421 62.3337 41.2047 63.6989 40.6839C65.0641 40.2672 66.7444 40.3714 68.8448 40.9964L71.1552 41.7255L71.4702 40.5797C71.7853 39.7464 71.6803 39.0173 71.3652 38.2882C71.0502 37.6632 70.315 37.1424 69.3699 36.83C68.5297 36.5175 67.6896 36.5175 66.9545 36.83C66.2193 37.0383 65.7993 37.5591 65.5892 38.0799L63.1738 37.3508C63.3838 36.6216 63.9089 36.1008 64.539 35.58C65.2742 35.0592 66.1143 34.7468 67.0595 34.6426C68.0046 34.5384 69.0548 34.6426 70.105 34.9551C71.7853 35.4759 72.8355 36.3092 73.5706 37.3508C74.2007 38.4965 74.3057 39.7464 73.8856 41.1005L71.7853 47.5584C71.3652 48.8083 71.1552 49.9541 71.2602 50.7874L71.1552 50.9957L68.9498 50.4749ZM65.4842 47.3501C66.2193 47.5584 67.0595 47.6626 67.7946 47.4543C68.6347 47.2459 69.2648 46.9335 69.7899 46.4127L70.7351 43.4962L68.8448 42.8712C65.9043 41.9338 64.119 42.3504 63.5939 44.017C63.3838 44.7461 63.3838 45.4752 63.8039 45.996C64.119 46.7251 64.7491 47.1418 65.4842 47.3501Z" fill="black"/>
<path d="M85.0177 50.7874C85.2277 50.1624 85.1227 49.5375 84.7026 49.0167C84.2826 48.4959 83.5474 47.9751 82.2872 47.3501C81.027 46.7252 80.1869 46.2044 79.5568 45.6836C78.9267 45.1628 78.5066 44.5378 78.2965 43.9128C78.0865 43.2879 78.0865 42.6629 78.2965 41.9338C78.6116 40.788 79.3467 39.9547 80.6069 39.3298C81.8672 38.809 83.2324 38.7048 84.7026 39.1215C86.3829 39.5381 87.5381 40.2672 88.3783 41.413C89.2184 42.5587 89.4285 43.7045 89.1134 45.0586L86.593 44.4336C86.803 43.8087 86.593 43.0795 86.1729 42.4546C85.7528 41.8296 85.1227 41.413 84.1776 41.2047C83.2324 40.9963 82.4973 40.9963 81.9722 41.2047C81.3421 41.413 81.027 41.9338 80.817 42.5588C80.712 43.1837 80.817 43.6004 81.132 44.1212C81.5521 44.5378 82.2872 45.0586 83.4424 45.6836C84.5976 46.3085 85.5428 46.8293 86.1729 47.4543C86.803 48.0792 87.3281 48.6 87.5381 49.225C87.7482 49.8499 87.7482 50.5791 87.5381 51.3082C87.2231 52.5581 86.3829 53.4956 85.2277 54.0164C84.0725 54.5372 82.6023 54.5372 80.922 54.1205C79.7668 53.808 78.8216 53.3914 77.9815 52.7664C77.2464 52.1415 76.6163 51.4123 76.3012 50.5791C75.9861 49.7458 75.9862 48.9125 76.1962 48.0792L78.6116 48.7042C78.4016 49.5375 78.6116 50.2666 79.1367 50.8916C79.6618 51.5165 80.3969 51.9331 81.3421 52.2456C82.2872 52.4539 83.0224 52.4539 83.7575 52.2456C84.4926 52.0373 84.8077 51.4123 85.0177 50.7874Z" fill="black"/>
<path d="M89.4284 59.9535L88.2732 58.7036C89.3234 57.7661 90.0585 56.6203 90.3736 55.3704L90.8986 53.1831L93.3141 53.7039L92.894 55.6829C92.6839 56.6204 92.2639 57.4536 91.6338 58.1828C90.8986 58.9119 90.1635 59.5368 89.4284 59.9535Z" fill="black"/>
<path d="M112.637 60.266C112.532 59.9535 112.532 59.4327 112.532 58.7036C111.167 59.7452 109.697 60.0576 108.016 59.8493C106.546 59.641 105.496 59.016 104.656 58.0786C103.816 57.1412 103.606 55.9954 103.816 54.7455C104.026 53.1831 104.866 52.1415 106.126 51.5165C107.386 50.8916 109.172 50.6832 111.272 51.0999L113.687 51.5165L113.897 50.3708C114.002 49.5375 113.897 48.8084 113.477 48.1834C113.057 47.5584 112.322 47.246 111.272 47.0376C110.327 46.9335 109.592 47.0377 108.962 47.3501C108.332 47.6626 107.911 48.1834 107.806 48.8084L105.286 48.3917C105.391 47.6626 105.811 47.0376 106.441 46.4127C107.071 45.7877 107.911 45.3711 108.857 45.1628C109.802 44.9544 110.852 44.8503 111.902 45.0586C113.582 45.3711 114.843 45.996 115.683 46.9335C116.523 47.9751 116.838 49.1208 116.628 50.6832L115.578 57.3495C115.368 58.7035 115.368 59.7451 115.578 60.5784V60.7868L112.637 60.266ZM108.857 57.662C109.592 57.7661 110.432 57.662 111.167 57.4536C111.902 57.1412 112.532 56.7245 112.952 56.0996L113.477 53.0789L111.482 52.7664C108.437 52.2456 106.756 52.8706 106.441 54.7455C106.336 55.4746 106.441 56.2037 106.966 56.7245C107.386 57.2453 108.016 57.5578 108.857 57.662Z" fill="black"/>
<path d="M128.075 49.6416C127.655 49.5375 127.34 49.4333 126.815 49.4333C125.135 49.225 123.979 49.7458 123.139 51.0999L121.879 61.5159L119.359 61.2034L121.144 46.621L123.559 46.9335L123.349 48.6C124.294 47.3501 125.555 46.9335 127.13 47.0376C127.655 47.1418 127.97 47.246 128.18 47.3501L128.075 49.6416Z" fill="black"/>
<path d="M135.216 44.5378L134.901 48.0792L137.632 48.2876L137.422 50.2666L134.691 50.0583L133.851 59.1202C133.746 59.7452 133.851 60.1618 134.061 60.4743C134.271 60.7867 134.691 60.9951 135.321 60.9951C135.636 60.9951 136.056 60.9951 136.581 60.8909L136.371 62.87C135.741 62.9741 135.006 62.9741 134.376 62.9741C133.221 62.87 132.381 62.4533 131.961 61.7242C131.436 60.9951 131.225 59.9535 131.331 58.8077L132.171 49.7458L129.44 49.5375L129.65 47.5584L132.381 47.7668L132.696 44.2253L135.216 44.5378Z" fill="black"/>
<path d="M142.462 63.3907L139.942 63.1824L140.992 48.4959L143.513 48.7042L142.462 63.3907ZM140.992 44.642C140.992 44.2253 141.202 43.9128 141.412 43.6004C141.727 43.2879 142.042 43.1837 142.567 43.2879C143.092 43.392 143.407 43.4962 143.618 43.8087C143.828 44.1211 143.933 44.4336 143.933 44.8503C143.933 45.2669 143.723 45.5794 143.513 45.8919C143.197 46.1002 142.882 46.3085 142.357 46.2044C141.832 46.1002 141.517 45.996 141.307 45.6836C141.097 45.3711 140.992 45.0586 140.992 44.642Z" fill="black"/>
<path d="M155.905 60.1618C155.905 59.4327 155.695 58.9119 155.17 58.5994C154.644 58.1828 153.804 57.8703 152.544 57.5578C151.284 57.2453 150.234 56.8287 149.499 56.5162C148.763 56.0996 148.238 55.6829 147.923 55.058C147.608 54.5372 147.398 53.9122 147.503 53.1831C147.503 51.9331 148.133 50.9957 149.183 50.1624C150.234 49.3291 151.599 49.0167 153.174 49.0167C154.854 49.1208 156.22 49.5375 157.27 50.4749C158.32 51.4124 158.74 52.4539 158.74 53.808L156.22 53.7039C156.22 52.9747 156.01 52.454 155.38 51.9332C154.749 51.4124 154.119 51.0999 153.174 51.0999C152.229 51.0999 151.494 51.204 150.969 51.6207C150.444 52.0373 150.129 52.5581 150.129 53.1831C150.129 53.808 150.339 54.2247 150.759 54.5372C151.284 54.8496 152.124 55.1621 153.384 55.4746C154.644 55.7871 155.695 56.2037 156.43 56.6204C157.165 57.037 157.795 57.5578 158.11 58.0786C158.425 58.5994 158.635 59.3285 158.635 60.0576C158.635 61.4117 158.005 62.4533 156.955 63.1824C155.905 63.9115 154.434 64.3282 152.754 64.224C151.599 64.224 150.549 63.9116 149.604 63.4949C148.658 63.0783 148.028 62.4533 147.503 61.62C146.978 60.8909 146.768 60.0576 146.768 59.1202L149.288 59.2244C149.288 60.0576 149.604 60.7868 150.234 61.3076C150.864 61.8284 151.704 62.1408 152.754 62.1408C153.699 62.1408 154.539 62.0367 155.064 61.62C155.59 61.2034 155.905 60.7868 155.905 60.1618Z" fill="black"/>
<path d="M165.672 45.8919V49.4333H168.402V51.4124H165.672V60.5784C165.672 61.2034 165.777 61.62 165.987 61.9325C166.197 62.245 166.617 62.3492 167.247 62.3492C167.562 62.3492 167.982 62.3491 168.507 62.1408V64.224C167.877 64.4323 167.142 64.5365 166.512 64.5365C165.357 64.5365 164.516 64.224 163.991 63.4949C163.466 62.7658 163.151 61.8283 163.151 60.5784V51.4124H160.421V49.4333H163.151V45.8919H165.672Z" fill="black"/>
<path d="M181.634 63.5991C181.424 63.2866 181.319 62.7658 181.214 62.0367C180.164 63.2866 178.799 64.0157 177.118 64.1199C175.648 64.224 174.388 63.9116 173.443 63.1824C172.498 62.4533 171.867 61.4117 171.762 60.1618C171.657 58.5994 172.182 57.3495 173.233 56.5162C174.388 55.5788 175.963 55.058 178.063 54.8496L180.479 54.6413L180.374 53.4956C180.269 52.6623 179.954 51.9332 179.429 51.4124C178.904 50.8916 178.063 50.6833 177.013 50.7874C176.068 50.8916 175.333 51.0999 174.808 51.6207C174.178 52.1415 173.968 52.6623 173.968 53.2872L171.447 53.4956C171.342 52.7665 171.657 52.0373 172.077 51.3082C172.603 50.5791 173.233 49.9541 174.073 49.5375C174.913 49.1208 175.963 48.8084 177.013 48.7042C178.694 48.6001 180.059 48.9125 181.109 49.6416C182.159 50.3708 182.684 51.5165 182.894 53.0789L183.419 59.8493C183.524 61.2034 183.734 62.245 184.155 63.0783V63.2866L181.634 63.5991ZM177.223 61.9325C178.063 61.8284 178.799 61.6201 179.429 61.2034C180.164 60.7868 180.584 60.1618 180.899 59.5368L180.689 56.5162L178.694 56.6204C175.543 56.8287 174.073 57.8703 174.283 59.641C174.388 60.4743 174.598 60.9951 175.228 61.4117C175.753 61.8284 176.383 62.0367 177.223 61.9325Z" fill="black"/>
<path d="M200.537 56.9328L201.693 45.3711L204.318 44.8503L201.903 62.6616C201.482 65.2656 200.327 66.7239 198.332 67.1405L197.807 67.2447H196.862L196.442 65.2656L197.177 65.1615C198.017 64.9531 198.647 64.6407 199.067 64.224C199.487 63.8074 199.697 63.0783 199.802 62.1408L200.012 60.5784L191.821 47.3501L194.551 46.8293L200.537 56.9328Z" fill="black"/>
<path d="M215.765 38.0799L216.815 41.5172L219.441 40.788L219.966 42.6629L217.34 43.392L219.861 52.1415C220.071 52.6623 220.281 53.0789 220.596 53.2872C220.911 53.4955 221.331 53.4956 221.961 53.3914C222.276 53.2872 222.591 53.1831 223.116 52.8706L223.641 54.8496C223.011 55.1621 222.486 55.4746 221.856 55.6829C220.806 55.9954 219.861 55.8912 219.126 55.3704C218.391 54.8496 217.865 54.0163 217.445 52.8706L214.925 44.1212L212.3 44.8503L211.774 42.9754L214.4 42.2463L213.35 38.809L215.765 38.0799Z" fill="black"/>
<path d="M223.747 46.9335C223.327 45.5794 223.117 44.2253 223.327 42.9754C223.537 41.7255 223.957 40.5797 224.692 39.6423C225.427 38.7048 226.477 38.0799 227.737 37.6632C229.628 37.0383 231.413 37.1424 233.093 38.0799C234.774 39.0173 235.929 40.5797 236.664 42.7671L236.769 42.9754C237.189 44.3295 237.399 45.6836 237.189 46.9335C236.979 48.1834 236.559 49.3292 235.824 50.1624C235.089 51.0999 234.038 51.7248 232.778 52.1415C230.888 52.7664 229.103 52.6623 227.422 51.7248C225.742 50.7874 224.587 49.225 223.852 47.1418L223.747 46.9335ZM226.267 46.4127C226.792 47.9751 227.527 49.1208 228.577 49.7458C229.628 50.3708 230.783 50.5791 231.938 50.1624C233.198 49.7458 233.933 48.9125 234.353 47.7668C234.774 46.621 234.668 45.1628 234.038 43.392C233.513 41.8296 232.778 40.7881 231.623 40.0589C230.573 39.3298 229.418 39.2256 228.262 39.6423C227.107 40.0589 226.267 40.7881 225.847 42.038C225.637 43.2879 225.742 44.7461 226.267 46.4127Z" fill="black"/>
<path d="M244.855 34.226C244.435 34.3301 244.12 34.4343 243.7 34.5384C242.125 35.1634 241.389 36.205 241.284 37.6632L245.065 47.4543L242.65 48.3917L237.294 34.6426L239.604 33.8093L240.234 35.3717C240.549 33.8093 241.389 32.7677 242.86 32.2469C243.28 32.0386 243.7 32.0386 244.015 32.0386L244.855 34.226Z" fill="black"/>
<path d="M248.531 30.2679L249.371 31.9344C249.896 30.1637 250.946 28.9138 252.626 28.2888C255.567 27.0389 257.667 28.0805 259.032 31.3095L262.813 40.2672L260.503 41.2047L256.617 32.2469C256.197 31.3095 255.672 30.6845 255.042 30.372C254.412 30.0596 253.571 30.1637 252.626 30.5804C251.891 30.8929 251.261 31.4137 250.841 32.0386C250.421 32.6636 250.211 33.3927 250.211 34.226L254.307 43.9128L251.996 44.8503L246.22 31.3095L248.531 30.2679Z" fill="black"/>
<path d="M272.685 36.1008C270.9 36.9341 269.114 37.0383 267.434 36.4133C265.754 35.7884 264.388 34.4343 263.443 32.4552L263.233 32.0386C262.603 30.6845 262.288 29.4346 262.288 28.1847C262.288 26.9347 262.603 25.789 263.233 24.7474C263.863 23.7058 264.704 22.9767 265.754 22.4559C267.539 21.6226 269.114 21.6226 270.69 22.2476C272.265 22.8725 273.42 24.3308 274.47 26.5181L274.89 27.4556L265.754 31.7261C266.384 32.9761 267.329 33.9135 268.379 34.3301C269.534 34.7468 270.69 34.7468 271.74 34.226C272.58 33.8093 273.21 33.3927 273.525 32.7677C273.945 32.1428 274.26 31.5178 274.365 30.7887L276.255 31.2053C276.255 33.3927 274.89 35.0592 272.685 36.1008ZM266.699 24.2266C265.754 24.6432 265.124 25.3724 264.809 26.3098C264.493 27.2472 264.598 28.393 265.019 29.6429L271.74 26.5181L271.635 26.3098C271.005 25.164 270.269 24.4349 269.429 24.0183C268.589 23.8099 267.644 23.81 266.699 24.2266Z" fill="black"/>
<path d="M276.991 25.4766C276.361 24.2266 275.94 22.8725 275.94 21.6226C275.94 20.3727 276.15 19.227 276.781 18.1854C277.411 17.1438 278.251 16.3105 279.406 15.7897C281.191 14.8522 282.977 14.7481 284.762 15.373C286.547 15.998 287.912 17.3521 288.963 19.4353L289.068 19.6436C289.698 20.8935 290.118 22.1434 290.118 23.4975C290.118 24.8516 289.908 25.8932 289.278 26.9348C288.648 27.9764 287.807 28.8097 286.547 29.4346C284.762 30.3721 282.977 30.4762 281.191 29.8513C279.406 29.2263 278.041 27.8722 276.991 25.789V25.4766ZM279.301 24.5391C280.036 25.9973 280.981 26.9348 282.136 27.4556C283.292 27.9764 284.447 27.9764 285.497 27.3514C286.652 26.7265 287.282 25.8932 287.492 24.6433C287.702 23.3933 287.387 21.9351 286.547 20.3727C285.812 18.9144 284.867 17.977 283.712 17.4562C282.557 16.9354 281.401 16.9354 280.246 17.5604C279.091 18.1853 278.461 19.0186 278.251 20.2686C278.146 21.4143 278.461 22.8725 279.301 24.5391Z" fill="black"/>
<path d="M301.355 16.3104C301.04 15.6855 300.514 15.373 299.884 15.373C299.254 15.2688 298.309 15.4772 297.049 15.8938C295.789 16.3104 294.739 16.5188 293.898 16.5188C293.058 16.5188 292.323 16.4146 291.798 16.2063C291.168 15.8938 290.748 15.4772 290.328 14.8522C289.698 13.8106 289.698 12.6649 290.118 11.4149C290.538 10.165 291.483 9.1234 292.848 8.39428C294.318 7.561 295.684 7.24852 297.049 7.45684C298.414 7.66516 299.359 8.39428 300.094 9.54004L297.889 10.79C297.574 10.165 296.944 9.85253 296.209 9.64421C295.474 9.54005 294.633 9.6442 293.898 10.0608C293.058 10.4775 292.533 11.1024 292.323 11.6232C292.113 12.2482 292.113 12.769 292.428 13.394C292.743 13.9148 293.163 14.2272 293.793 14.2272C294.423 14.2272 295.264 14.1231 296.524 13.7064C297.784 13.2898 298.834 13.0815 299.674 13.0815C300.515 12.9773 301.25 13.1857 301.88 13.394C302.51 13.7065 303.035 14.1231 303.35 14.8522C303.98 15.998 304.085 17.1437 303.56 18.3936C303.035 19.6436 302.09 20.6852 300.62 21.5184C299.569 22.1434 298.624 22.4559 297.574 22.56C296.524 22.6642 295.684 22.4559 294.844 22.1434C294.003 21.8309 293.373 21.206 292.953 20.4768L295.159 19.2269C295.579 19.9561 296.209 20.3727 297.049 20.4768C297.889 20.581 298.729 20.3727 299.569 19.8519C300.409 19.3311 300.935 18.8103 301.25 18.1853C301.67 17.4562 301.67 16.8312 301.355 16.3104Z" fill="black"/>
</svg>
