<svg width="487" height="73" viewBox="0 0 487 73" fill="none" xmlns="http://www.w3.org/2000/svg">
<path d="M15.2652 3.12929L11.0814 21.4101L26.799 10.9799L29.852 12.9987L17.6398 30.6065L15.2652 29.0364L20.0144 22.1951L25.329 14.9053L9.61145 25.1111L7.91531 23.9896L11.986 5.82093L7.12378 13.3351L2.37459 20.1764L0 18.6063L12.2122 0.998413L15.2652 3.12929Z" fill="black"/>
<path d="M31.8874 38.345C31.8874 38.0086 32.0005 37.4478 32.3397 36.6627C30.6436 37.2235 28.9475 37.1114 27.3644 36.3263C26.0075 35.5412 24.9898 34.644 24.5375 33.2982C24.0852 32.0645 24.1983 30.8308 24.7637 29.5972C25.5552 28.1392 26.686 27.3541 28.269 27.1298C29.8521 26.9055 31.6613 27.3541 33.5836 28.3635L35.9582 29.5972L36.5236 28.4757C36.9759 27.6906 37.0889 26.7934 36.8628 26.1205C36.6366 25.3354 35.9582 24.6625 35.0536 24.2139C34.149 23.7653 33.3574 23.541 32.5659 23.7653C31.7744 23.8774 31.209 24.2139 30.8698 24.8868L28.4952 23.6531C28.8344 22.9802 29.5129 22.4194 30.3044 21.9708C31.0959 21.5222 32.1136 21.4101 33.1313 21.5222C34.149 21.6344 35.2797 21.8587 36.2974 22.4195C37.8805 23.3167 39.0112 24.326 39.4635 25.6719C39.9158 27.0177 39.8028 28.3635 39.1243 29.7093L35.6189 36.102C34.9405 37.3356 34.6013 38.4572 34.4882 39.4665L34.3751 39.6908L31.8874 38.345ZM28.9475 34.3075C29.739 34.7561 30.5305 34.8683 31.4351 34.8683C32.3397 34.8683 33.1313 34.644 33.6967 34.0833L35.2797 31.1673L33.3574 30.1579C30.4175 28.5878 28.4952 28.6999 27.5906 30.3822C27.1383 31.1673 27.1383 31.8402 27.3644 32.5131C27.5906 33.4103 28.1559 33.9711 28.9475 34.3075Z" fill="black"/>
<path d="M51.4495 32.5131C51.1103 32.2888 50.658 32.0645 50.3188 31.8402C48.7357 31.0552 47.2657 31.2795 46.0219 32.401L41.2727 42.6068L38.785 41.4853L45.3434 27.0177L47.718 28.1392L47.0396 29.8215C48.3965 28.9242 49.8665 28.8121 51.4495 29.485C51.9018 29.7093 52.2411 29.9336 52.4672 30.1579L51.4495 32.5131Z" fill="black"/>
<path d="M55.4072 46.5321C56.3118 46.8686 57.2164 46.8685 58.121 46.6442C59.0256 46.3078 59.7041 45.8592 60.0433 45.0741L62.4179 45.9714C62.0787 46.7564 61.4002 47.5415 60.6087 48.1022C59.8172 48.663 58.7995 48.9994 57.6687 49.1116C56.538 49.2238 55.5203 49.1116 54.5026 48.663C52.4672 47.8779 51.1103 46.5321 50.4319 44.7377C49.7534 42.9432 49.8665 40.8124 50.7711 38.5693L50.8842 38.1207C51.4496 36.6627 52.2411 35.5412 53.1457 34.644C54.1634 33.7468 55.1811 33.186 56.4249 32.9617C57.6687 32.7374 58.9126 32.8496 60.2695 33.4103C61.9656 34.0832 63.0964 35.0926 63.8879 36.5506C64.5664 38.0085 64.6794 39.4665 64.1141 41.1488L61.7395 40.2516C62.0787 39.2422 61.9656 38.345 61.6264 37.4478C61.1741 36.5506 60.4956 35.9898 59.591 35.5412C58.3472 35.0926 57.1034 35.0926 56.0857 35.7655C54.9549 36.4384 54.1634 37.5599 53.4849 39.3544L53.2588 39.803C52.5803 41.4853 52.4672 42.9432 52.8065 44.1769C53.2588 45.1863 54.0503 46.0835 55.4072 46.5321Z" fill="black"/>
<path d="M73.9516 54.9435C73.9516 54.6071 73.9516 54.0463 74.0647 53.2612C72.4816 54.1585 70.7855 54.2706 69.0893 53.7098C67.6194 53.2612 66.4886 52.4762 65.8101 51.2425C65.1317 50.121 65.0186 48.8873 65.3578 47.5415C65.8101 45.9714 66.8278 44.962 68.2978 44.4012C69.7678 43.9526 71.577 44.0648 73.8385 44.7377L76.3262 45.5227L76.6654 44.2891C77.0047 43.3919 76.8916 42.6068 76.5524 41.8217C76.2131 41.1488 75.4216 40.5881 74.4039 40.2516C73.4993 39.9152 72.5947 39.9152 71.8032 40.2516C71.0116 40.4759 70.5593 41.0367 70.3332 41.5974L67.7324 40.8124C67.9586 40.0273 68.524 39.4665 69.2024 38.9058C69.994 38.345 70.8986 38.0086 71.9162 37.8964C72.9339 37.7843 74.0647 37.8964 75.1954 38.2329C77.0047 38.7936 78.1354 39.6909 78.9269 40.8124C79.6054 42.046 79.7185 43.3919 79.2662 44.8498L77.0047 51.8033C76.5524 53.1491 76.3262 54.3828 76.4393 55.28L76.3262 55.5043L73.9516 54.9435ZM70.2201 51.579C71.0116 51.8033 71.9162 51.9154 72.7078 51.6911C73.6124 51.4668 74.2908 51.1303 74.8562 50.5696L75.8739 47.4293L73.8385 46.7564C70.6724 45.747 68.7501 46.1957 68.1847 47.9901C67.9586 48.7752 67.9586 49.5602 68.4109 50.121C68.7501 50.906 69.4286 51.3547 70.2201 51.579Z" fill="black"/>
<path d="M91.2522 55.28C91.4783 54.6071 91.3653 53.9341 90.9129 53.3734C90.4606 52.8126 89.6691 52.2519 88.3122 51.579C86.9553 50.906 86.0507 50.3453 85.3722 49.7845C84.6938 49.2238 84.2415 48.5508 84.0153 47.8779C83.7892 47.205 83.7892 46.5321 84.0153 45.747C84.3546 44.5134 85.1461 43.6162 86.503 42.9432C87.8599 42.3825 89.3299 42.2703 90.9129 42.7189C92.7222 43.1675 93.966 43.9526 94.8706 45.1863C95.7752 46.42 96.0014 47.6536 95.6621 49.1116L92.9483 48.4387C93.1745 47.7658 92.9483 46.9807 92.496 46.3078C92.0437 45.6349 91.3653 45.1863 90.3476 44.962C89.3299 44.7377 88.5384 44.7377 87.973 44.962C87.2945 45.1863 86.9553 45.7471 86.7291 46.42C86.6161 47.0929 86.7291 47.5415 87.0684 48.1022C87.5207 48.5509 88.3122 49.1116 89.556 49.7845C90.7999 50.4574 91.8176 51.0182 92.496 51.6911C93.1745 52.364 93.7398 52.9248 93.966 53.5977C94.1921 54.2706 94.1921 55.0557 93.966 55.8407C93.6268 57.1865 92.7222 58.1959 91.4783 58.7567C90.2345 59.3174 88.6514 59.3174 86.8422 58.8688C85.5984 58.5324 84.5807 58.0838 83.6761 57.4108C82.8846 56.7379 82.2061 55.9529 81.8669 55.0556C81.5277 54.1584 81.5277 53.2612 81.7538 52.364L84.3545 53.0369C84.1284 53.9341 84.3545 54.7192 84.9199 55.3921C85.4853 56.065 86.2768 56.5136 87.2945 56.8501C88.3122 57.0744 89.1037 57.0744 89.8953 56.8501C90.6868 56.6258 91.026 55.9529 91.2522 55.28Z" fill="black"/>
<path d="M96.0014 65.1493L94.7576 63.8035C95.8883 62.7942 96.6799 61.5605 97.0191 60.2146L97.5845 57.8595L100.185 58.4202L99.7329 60.5511C99.5067 61.5605 99.0544 62.4577 98.376 63.2428C97.5845 64.0278 96.7929 64.7007 96.0014 65.1493Z" fill="black"/>
<path d="M120.991 65.4858C120.878 65.1494 120.878 64.5886 120.878 63.8035C119.408 64.9251 117.825 65.2615 116.016 65.0372C114.433 64.8129 113.302 64.14 112.397 63.1306C111.493 62.1212 111.267 60.8876 111.493 59.5417C111.719 57.8595 112.624 56.738 113.98 56.0651C115.337 55.3921 117.26 55.1678 119.521 55.6164L122.122 56.0651L122.348 54.8314C122.461 53.9342 122.348 53.1491 121.896 52.4762C121.444 51.8033 120.652 51.4668 119.521 51.2425C118.504 51.1303 117.712 51.2425 117.034 51.579C116.355 51.9154 115.903 52.4762 115.79 53.1491L113.076 52.7005C113.189 51.9154 113.641 51.2425 114.32 50.5696C114.998 49.8967 115.903 49.4481 116.92 49.2238C117.938 48.9995 119.069 48.8873 120.2 49.1116C122.009 49.4481 123.366 50.121 124.27 51.1303C125.175 52.2519 125.514 53.4855 125.288 55.1678L124.157 62.3455C123.931 63.8035 123.931 64.925 124.157 65.8223V66.0466L120.991 65.4858ZM116.92 62.682C117.712 62.7942 118.617 62.682 119.408 62.4577C120.2 62.1212 120.878 61.6726 121.33 60.9997L121.896 57.7473L119.747 57.4109C116.468 56.8501 114.659 57.523 114.32 59.5417C114.207 60.3268 114.32 61.1119 114.885 61.6727C115.337 62.2334 116.016 62.5699 116.92 62.682Z" fill="black"/>
<path d="M137.613 54.0463C137.161 53.9341 136.822 53.822 136.256 53.822C134.447 53.5977 133.203 54.1584 132.299 55.6164L130.942 66.8316L128.228 66.4952L130.15 50.7939L132.751 51.1303L132.525 52.9248C133.543 51.5789 134.9 51.1303 136.596 51.2425C137.161 51.3546 137.5 51.4668 137.726 51.579L137.613 54.0463Z" fill="black"/>
<path d="M145.302 48.5509L144.963 52.364L147.903 52.5883L147.677 54.7192L144.737 54.4949L143.832 64.2521C143.719 64.925 143.832 65.3736 144.059 65.7101C144.285 66.0465 144.737 66.2708 145.416 66.2708C145.755 66.2708 146.207 66.2709 146.772 66.1587L146.546 68.2896C145.868 68.4018 145.076 68.4018 144.398 68.4018C143.154 68.2896 142.249 67.841 141.797 67.0559C141.232 66.2709 141.006 65.1494 141.119 63.9157L142.023 54.1584L139.083 53.9341L139.309 51.8033L142.249 52.0276L142.589 48.2144L145.302 48.5509Z" fill="black"/>
<path d="M153.105 68.8504L150.391 68.626L151.522 52.8126L154.235 53.0369L153.105 68.8504ZM151.522 48.663C151.522 48.2144 151.748 47.8779 151.974 47.5415C152.313 47.205 152.652 47.0929 153.218 47.205C153.783 47.3172 154.122 47.4293 154.349 47.7658C154.575 48.1022 154.688 48.4387 154.688 48.8873C154.688 49.3359 154.462 49.6723 154.235 50.0088C153.896 50.2331 153.557 50.4574 152.992 50.3453C152.426 50.2331 152.087 50.121 151.861 49.7845C151.635 49.4481 151.522 49.1116 151.522 48.663Z" fill="black"/>
<path d="M167.578 65.3737C167.578 64.5886 167.352 64.0278 166.787 63.6914C166.222 63.2428 165.317 62.9063 163.96 62.5699C162.603 62.2334 161.472 61.7848 160.681 61.4483C159.889 60.9997 159.324 60.5511 158.985 59.8782C158.645 59.3175 158.419 58.6445 158.532 57.8595C158.532 56.5136 159.211 55.5043 160.342 54.6071C161.472 53.7098 162.942 53.3734 164.638 53.3734C166.448 53.4855 167.918 53.9342 169.048 54.9435C170.179 55.9529 170.631 57.0744 170.631 58.5324L167.918 58.4202C167.918 57.6352 167.692 57.0744 167.013 56.5137C166.335 55.9529 165.656 55.6164 164.638 55.6164C163.621 55.6164 162.829 55.7286 162.264 56.1772C161.698 56.6258 161.359 57.1865 161.359 57.8595C161.359 58.5324 161.585 58.981 162.038 59.3175C162.603 59.6539 163.508 59.9904 164.865 60.3268C166.222 60.6633 167.352 61.1119 168.144 61.5605C168.935 62.0091 169.614 62.5699 169.953 63.1306C170.292 63.6914 170.518 64.4764 170.518 65.2615C170.518 66.7195 169.84 67.841 168.709 68.6261C167.578 69.4111 165.995 69.8597 164.186 69.7476C162.942 69.7476 161.812 69.4111 160.794 68.9625C159.776 68.5139 159.098 67.841 158.532 66.9438C157.967 66.1587 157.741 65.2615 157.741 64.2521L160.455 64.3643C160.455 65.2615 160.794 66.0466 161.472 66.6073C162.151 67.1681 163.055 67.5045 164.186 67.5045C165.204 67.5045 166.108 67.3924 166.674 66.9438C167.239 66.4952 167.578 66.0466 167.578 65.3737Z" fill="black"/>
<path d="M178.094 50.0088V53.822H181.034V55.9529H178.094V65.8222C178.094 66.4952 178.208 66.9438 178.434 67.2802C178.66 67.6167 179.112 67.7288 179.791 67.7288C180.13 67.7288 180.582 67.7288 181.148 67.5045V69.7476C180.469 69.9719 179.678 70.084 178.999 70.084C177.755 70.084 176.851 69.7476 176.285 68.9625C175.72 68.1775 175.381 67.1681 175.381 65.8222V55.9529H172.441V53.822H175.381V50.0088H178.094Z" fill="black"/>
<path d="M195.282 69.0747C195.056 68.7382 194.943 68.1775 194.83 67.3924C193.699 68.7382 192.229 69.5233 190.42 69.6354C188.837 69.7476 187.48 69.4111 186.462 68.6261C185.444 67.841 184.766 66.7195 184.653 65.3737C184.54 63.6914 185.105 62.3456 186.236 61.4483C187.48 60.439 189.176 59.8782 191.437 59.6539L194.038 59.4296L193.925 58.1959C193.812 57.2987 193.473 56.5137 192.907 55.9529C192.342 55.3921 191.437 55.1678 190.307 55.28C189.289 55.3921 188.497 55.6164 187.932 56.1772C187.254 56.738 187.027 57.2987 187.027 57.9716L184.314 58.1959C184.201 57.4109 184.54 56.6258 184.992 55.8408C185.558 55.0557 186.236 54.3828 187.141 53.9342C188.045 53.4855 189.176 53.1491 190.307 53.037C192.116 52.9248 193.586 53.2612 194.717 54.0463C195.847 54.8314 196.413 56.0651 196.639 57.7473L197.204 65.0372C197.317 66.4952 197.544 67.6167 197.996 68.5139V68.7382L195.282 69.0747ZM190.533 67.2803C191.437 67.1681 192.229 66.9438 192.907 66.4952C193.699 66.0466 194.151 65.3737 194.49 64.7007L194.264 61.4483L192.116 61.5605C188.724 61.7848 187.141 62.9063 187.367 64.8129C187.48 65.7101 187.706 66.2709 188.384 66.7195C188.95 67.1681 189.628 67.3924 190.533 67.2803Z" fill="black"/>
<path d="M215.636 61.8969L216.88 49.4481L219.706 48.8873L217.106 68.0653C216.653 70.8691 215.41 72.4392 213.261 72.8878L212.696 73H211.678L211.226 70.8691L212.017 70.7569C212.922 70.5326 213.6 70.1962 214.053 69.7476C214.505 69.299 214.731 68.5139 214.844 67.5045L215.07 65.8223L206.25 51.579L209.19 51.0182L215.636 61.8969Z" fill="black"/>
<path d="M232.032 41.5974L233.162 45.2984L235.989 44.5134L236.555 46.5321L233.728 47.3172L236.442 56.7379C236.668 57.2987 236.894 57.7473 237.233 57.9716C237.572 58.1959 238.025 58.1959 238.703 58.0838C239.042 57.9716 239.382 57.8595 239.947 57.523L240.512 59.6539C239.834 59.9903 239.268 60.3268 238.59 60.5511C237.459 60.8876 236.442 60.7754 235.65 60.2146C234.859 59.6539 234.293 58.7567 233.841 57.523L231.127 48.1022L228.3 48.8873L227.735 46.8686L230.562 46.0835L229.431 42.3825L232.032 41.5974Z" fill="black"/>
<path d="M240.625 51.1303C240.173 49.6724 239.947 48.2144 240.173 46.8686C240.399 45.5228 240.852 44.2891 241.643 43.2797C242.435 42.2703 243.565 41.5974 244.922 41.1488C246.958 40.4759 248.88 40.5881 250.689 41.5974C252.498 42.6068 253.742 44.2891 254.534 46.6443L254.647 46.8686C255.099 48.3266 255.325 49.7845 255.099 51.1303C254.873 52.4762 254.421 53.7098 253.629 54.6071C252.838 55.6164 251.707 56.2893 250.35 56.7379C248.315 57.4109 246.392 57.2987 244.583 56.2893C242.774 55.28 241.53 53.5977 240.738 51.3547L240.625 51.1303ZM243.339 50.5696C243.905 52.2519 244.696 53.4856 245.827 54.1585C246.958 54.8314 248.201 55.0557 249.445 54.6071C250.802 54.1585 251.594 53.2613 252.046 52.0276C252.498 50.7939 252.385 49.2238 251.707 47.3172C251.141 45.6349 250.35 44.5134 249.106 43.7283C247.975 42.9433 246.731 42.8311 245.488 43.2797C244.244 43.7283 243.339 44.5134 242.887 45.8592C242.661 47.205 242.774 48.7752 243.339 50.5696Z" fill="black"/>
<path d="M263.354 37.4478C262.901 37.56 262.562 37.6721 262.11 37.7843C260.414 38.4572 259.622 39.5787 259.509 41.1488L263.58 51.6911L260.979 52.7005L255.212 37.8964L257.7 36.9992L258.378 38.6815C258.718 36.9992 259.622 35.8777 261.205 35.3169C261.657 35.0926 262.11 35.0926 262.449 35.0926L263.354 37.4478Z" fill="black"/>
<path d="M267.311 33.186L268.216 34.9805C268.781 33.0739 269.912 31.7281 271.721 31.0552C274.887 29.7093 277.149 30.8308 278.619 34.3076L282.69 43.9526L280.202 44.962L276.018 35.3169C275.566 34.3076 275 33.6346 274.322 33.2982C273.644 32.9617 272.739 33.0739 271.721 33.5225C270.93 33.859 270.251 34.4197 269.799 35.0926C269.347 35.7655 269.12 36.5506 269.12 37.4478L273.53 47.8779L271.043 48.8873L264.824 34.3076L267.311 33.186Z" fill="black"/>
<path d="M293.319 39.4665C291.396 40.3637 289.474 40.4759 287.665 39.803C285.856 39.1301 284.386 37.6721 283.368 35.5412L283.142 35.0926C282.463 33.6346 282.124 32.2888 282.124 30.943C282.124 29.5972 282.463 28.3635 283.142 27.242C283.82 26.1205 284.725 25.3354 285.856 24.7746C287.778 23.8774 289.474 23.8774 291.17 24.5503C292.866 25.2232 294.11 26.7934 295.241 29.1486L295.693 30.1579L285.856 34.7562C286.534 36.102 287.552 37.1114 288.683 37.56C289.927 38.0086 291.17 38.0086 292.301 37.4478C293.206 36.9992 293.884 36.5506 294.223 35.8777C294.676 35.2048 295.015 34.5318 295.128 33.7468L297.163 34.1954C297.163 36.5506 295.693 38.345 293.319 39.4665ZM286.873 26.6812C285.856 27.1298 285.177 27.9149 284.838 28.9243C284.499 29.9336 284.612 31.1673 285.064 32.5131L292.301 29.1486L292.188 28.9243C291.51 27.6906 290.718 26.9055 289.813 26.4569C288.909 26.2326 287.891 26.2326 286.873 26.6812Z" fill="black"/>
<path d="M297.955 28.0271C297.276 26.6812 296.824 25.2233 296.824 23.8774C296.824 22.5316 297.05 21.298 297.729 20.1764C298.407 19.0549 299.312 18.1577 300.556 17.5969C302.478 16.5876 304.4 16.4754 306.322 17.1483C308.245 17.8212 309.715 19.2792 310.845 21.5222L310.959 21.7466C311.637 23.0924 312.089 24.4382 312.089 25.8962C312.089 27.3541 311.863 28.4757 311.185 29.5972C310.506 30.7187 309.602 31.6159 308.245 32.2888C306.322 33.2982 304.4 33.4103 302.478 32.7374C300.556 32.0645 299.086 30.6066 297.955 28.3635V28.0271ZM300.443 27.0177C301.234 28.5878 302.252 29.5972 303.496 30.158C304.739 30.7187 305.983 30.7187 307.114 30.0458C308.358 29.3729 309.036 28.4757 309.262 27.1298C309.489 25.784 309.149 24.2139 308.245 22.5316C307.453 20.9615 306.436 19.9521 305.192 19.3914C303.948 18.8306 302.704 18.8306 301.46 19.5035C300.216 20.1764 299.538 21.0736 299.312 22.4195C299.199 23.6531 299.538 25.2232 300.443 27.0177Z" fill="black"/>
<path d="M324.189 18.1577C323.849 17.4848 323.284 17.1483 322.605 17.1483C321.927 17.0362 320.909 17.2605 319.552 17.7091C318.195 18.1577 317.065 18.382 316.16 18.382C315.256 18.382 314.464 18.2698 313.899 18.0455C313.22 17.7091 312.768 17.2605 312.316 16.5875C311.637 15.466 311.637 14.2324 312.089 12.8865C312.542 11.5407 313.559 10.4192 315.029 9.63411C316.612 8.73689 318.082 8.40044 319.552 8.62475C321.022 8.84905 322.04 9.63412 322.832 10.8678L320.457 12.2136C320.118 11.5407 319.439 11.2043 318.648 10.9799C317.856 10.8678 316.952 10.9799 316.16 11.4285C315.256 11.8772 314.69 12.5501 314.464 13.1108C314.238 13.7837 314.238 14.3445 314.577 15.0174C314.916 15.5782 315.369 15.9146 316.047 15.9146C316.726 15.9146 317.63 15.8025 318.987 15.3539C320.344 14.9053 321.475 14.6809 322.379 14.6809C323.284 14.5688 324.075 14.7931 324.754 15.0174C325.432 15.3539 325.998 15.8025 326.337 16.5875C327.015 17.8212 327.128 19.0549 326.563 20.4007C325.998 21.7465 324.98 22.868 323.397 23.7653C322.266 24.4382 321.249 24.7746 320.118 24.8868C318.987 24.9989 318.082 24.7746 317.178 24.4382C316.273 24.1017 315.595 23.4288 315.142 22.6437L317.517 21.2979C317.969 22.083 318.648 22.5316 319.552 22.6437C320.457 22.7559 321.362 22.5316 322.266 21.9708C323.171 21.4101 323.736 20.8493 324.075 20.1764C324.528 19.3914 324.528 18.7184 324.189 18.1577Z" fill="black"/>
<path d="M324.641 57.4109C322.605 58.1959 320.683 58.1959 318.987 57.4109C317.178 56.6258 315.821 55.1678 314.916 52.9248L314.69 52.4762C314.125 51.0182 313.786 49.5603 313.899 48.2144C314.012 46.8686 314.351 45.6349 315.142 44.6256C315.934 43.6162 316.839 42.8311 317.969 42.3825C319.892 41.5975 321.701 41.5975 323.284 42.4947C324.867 43.2797 326.111 44.8499 327.128 47.205L327.581 48.2144L317.517 52.2519C318.195 53.7099 319.1 54.7192 320.231 55.28C321.362 55.8408 322.605 55.8408 323.849 55.3922C324.754 55.0557 325.432 54.4949 325.885 53.9342C326.337 53.3734 326.676 52.5883 326.902 51.8033L328.938 52.364C328.598 54.7192 327.128 56.4015 324.641 57.4109ZM318.874 44.4012C317.856 44.8499 317.178 45.5228 316.726 46.5322C316.386 47.5415 316.386 48.7752 316.726 50.121L324.189 47.0929L324.075 46.8686C323.51 45.6349 322.719 44.7377 321.814 44.2891C320.909 43.9527 319.892 43.9526 318.874 44.4012Z" fill="black"/>
<path d="M330.634 38.0086L331.312 39.9152C331.991 38.1207 333.235 36.8871 335.157 36.3263C338.323 35.317 340.584 36.5506 341.828 40.1395L345.108 50.121L342.507 50.9061L339.228 40.9246C338.888 39.8031 338.323 39.1301 337.645 38.7937C336.966 38.4572 336.175 38.4572 335.044 38.7937C334.252 39.018 333.574 39.5787 333.008 40.1395C332.556 40.8124 332.217 41.4853 332.104 42.3825L335.609 53.1491L333.008 53.9342L328.033 38.7937L330.634 38.0086Z" fill="black"/>
<path d="M370.663 33.9711C371.115 35.9899 371.115 37.7843 370.776 39.3544C370.437 40.9245 369.758 42.2704 368.74 43.2797L373.15 45.5228L371.567 47.6537L366.366 44.962C365.687 45.2985 365.009 45.5228 364.217 45.6349C362.521 45.9714 361.051 45.8592 359.581 45.2985C358.111 44.7377 356.867 43.7283 355.85 42.3825C354.832 41.0367 354.154 39.3544 353.701 37.3357L353.362 35.8777C352.91 33.859 352.91 32.0645 353.362 30.3822C353.814 28.7 354.493 27.3542 355.624 26.2326C356.754 25.1111 358.111 24.4382 359.807 24.1018C361.504 23.7653 363.087 23.8774 364.557 24.4382C366.027 24.999 367.27 26.0083 368.288 27.3542C369.306 28.7 369.984 30.4944 370.437 32.5132L370.663 33.9711ZM367.61 33.186C367.157 30.7187 366.253 28.9243 365.009 27.8028C363.765 26.6812 362.182 26.2326 360.373 26.5691C358.677 26.9055 357.32 27.8028 356.641 29.3729C355.85 30.943 355.737 32.8496 356.189 35.2048L356.528 36.7749C356.98 39.1301 357.885 40.9245 359.129 42.1582C360.373 43.3919 361.956 43.7283 363.765 43.3919C365.574 43.0554 366.818 42.1582 367.61 40.5881C368.288 39.1301 368.514 37.1114 368.062 34.7562L367.61 33.186Z" fill="black"/>
<path d="M386.041 40.7002C385.136 42.0461 383.666 42.8311 381.631 43.0554C379.935 43.2797 378.578 42.9433 377.56 42.0461C376.543 41.1489 375.977 39.803 375.751 37.8964L374.62 27.5785L377.334 27.242L378.465 37.4478C378.691 39.803 379.822 40.9246 381.857 40.7002C383.893 40.4759 385.25 39.5787 385.702 37.8964L384.458 26.4569L387.172 26.1205L388.868 41.9339L386.267 42.2704L386.041 40.7002Z" fill="black"/>
<path d="M399.497 41.8218C397.349 41.9339 395.539 41.261 394.182 39.9152C392.826 38.5694 392.034 36.6628 391.921 34.3076V33.859C391.921 32.2889 392.147 30.8309 392.712 29.5972C393.278 28.3635 394.069 27.3542 395.2 26.5691C396.218 25.784 397.462 25.4476 398.705 25.4476C400.741 25.3354 402.437 26.0084 403.568 27.3542C404.812 28.7 405.377 30.6066 405.49 33.0739V34.1955L394.635 34.5319C394.748 36.102 395.2 37.3357 396.105 38.2329C397.009 39.1301 398.14 39.5787 399.497 39.5787C400.515 39.5787 401.306 39.3544 401.985 38.9058C402.663 38.4572 403.228 38.0086 403.681 37.3357L405.377 38.5694C404.133 40.5881 402.098 41.7096 399.497 41.8218ZM398.592 27.5785C397.462 27.5785 396.557 28.0271 395.879 28.9243C395.2 29.8215 394.748 30.8309 394.635 32.2889L402.663 32.0645V31.8403C402.55 30.4944 402.098 29.3729 401.419 28.7C400.741 28.0271 399.723 27.5785 398.592 27.5785Z" fill="black"/>
<path d="M416.798 28.1392C416.345 28.0271 415.893 28.0271 415.441 28.0271C413.632 28.0271 412.388 28.7 411.709 30.158L411.483 41.3732L408.769 41.261L409.109 25.4476L411.822 25.5597V27.3542C412.727 26.0083 414.084 25.3354 415.667 25.3354C416.232 25.3354 416.572 25.4476 416.911 25.5597L416.798 28.1392Z" fill="black"/>
<path d="M425.165 42.4947C423.017 42.2704 421.321 41.4853 420.077 39.9152C418.833 38.345 418.268 36.4385 418.494 34.0833V33.6347C418.607 32.0646 419.059 30.7187 419.738 29.4851C420.416 28.2514 421.321 27.3542 422.564 26.7934C423.695 26.2327 424.939 25.8962 426.183 26.0083C428.218 26.2326 429.801 27.0177 430.819 28.4757C431.837 29.9337 432.289 31.9524 432.063 34.4197L431.95 35.5413L421.094 34.6441C420.981 36.2142 421.321 37.4478 422.112 38.5694C422.904 39.5787 424.034 40.1395 425.391 40.2516C426.409 40.3638 427.201 40.2516 427.879 39.9152C428.557 39.5787 429.236 39.1301 429.801 38.4572L431.384 39.9152C429.914 41.8218 427.879 42.719 425.165 42.4947ZM426.07 28.2514C424.939 28.1392 424.034 28.4757 423.243 29.2607C422.451 30.0458 421.886 31.0552 421.547 32.5132L429.575 33.1861V32.9618C429.575 31.6159 429.349 30.4944 428.671 29.7094C428.105 28.8122 427.201 28.3635 426.07 28.2514ZM428.105 19.84L431.384 20.0643L427.088 23.9896L424.939 23.7653L428.105 19.84Z" fill="black"/>
<path d="M440.996 24.2139L440.431 28.0271L443.37 28.4757L443.031 30.6066L440.091 30.158L438.734 39.9152C438.621 40.5881 438.734 41.0367 438.961 41.3732C439.187 41.7096 439.639 41.9339 440.204 42.0461C440.544 42.0461 440.996 42.0461 441.561 42.0461L441.222 44.177C440.431 44.2891 439.752 44.2891 439.074 44.177C437.83 43.9527 437.038 43.504 436.473 42.719C435.907 41.9339 435.794 40.8124 436.021 39.4666L437.377 29.7094L434.438 29.2607L434.777 27.1298L437.604 27.5784L438.169 23.7653L440.996 24.2139Z" fill="black"/>
<path d="M453.886 46.5322C453.773 46.1957 453.773 45.635 453.886 44.8499C452.416 45.8593 450.72 46.1957 449.024 45.8592C447.441 45.5228 446.31 44.8499 445.519 43.7284C444.727 42.6068 444.388 41.4853 444.727 40.1395C445.067 38.5694 445.971 37.3357 447.328 36.7749C448.798 36.102 450.607 35.9899 452.869 36.5506L455.47 37.1114L455.696 35.8777C455.922 34.9805 455.809 34.1954 455.356 33.5225C454.904 32.8496 454.113 32.401 453.095 32.1767C452.19 31.9524 451.286 32.0646 450.494 32.401C449.703 32.7375 449.25 33.2982 449.137 33.9711L446.423 33.4104C446.537 32.6253 446.989 31.9524 447.667 31.2795C448.346 30.7187 449.25 30.2701 450.268 30.0458C451.286 29.8215 452.416 29.8215 453.547 30.0458C455.356 30.3823 456.713 31.1673 457.505 32.2889C458.296 33.4104 458.636 34.7562 458.296 36.3263L456.826 43.5041C456.487 44.962 456.487 46.0836 456.713 46.9808V47.2051L453.886 46.5322ZM449.816 43.6162C450.607 43.8405 451.512 43.7284 452.303 43.5041C453.095 43.2797 453.773 42.8311 454.339 42.1582L455.017 39.018L452.869 38.5694C449.59 37.8965 447.78 38.5693 447.328 40.4759C447.102 41.261 447.328 42.0461 447.78 42.6068C448.233 43.0555 448.911 43.3919 449.816 43.6162Z" fill="black"/>
<path d="M471.187 37.1114C470.848 36.8871 470.396 36.7749 469.943 36.6628C468.247 36.2142 466.89 36.5506 465.76 37.8964L462.706 48.7752L460.106 48.1023L464.29 32.8496L466.89 33.5225L466.438 35.317C467.682 34.1954 469.039 33.859 470.735 34.3076C471.3 34.4197 471.639 34.644 471.866 34.8683L471.187 37.1114Z" fill="black"/>
<path d="M471.639 42.719C472.205 41.261 472.883 40.0273 473.901 39.018C474.919 38.0086 476.049 37.4478 477.293 37.1114C478.537 36.8871 479.894 36.8871 481.138 37.3357C483.173 38.0086 484.643 39.3544 485.435 41.1488C486.226 42.9433 486.226 45.0742 485.322 47.4294L485.209 47.6537C484.643 49.1116 483.965 50.3453 482.947 51.2425C481.929 52.2519 480.912 52.8127 479.555 53.1491C478.311 53.4856 476.954 53.3734 475.597 52.9248C473.562 52.2519 472.092 50.9061 471.3 49.1116C470.509 47.3172 470.509 45.1863 471.3 42.8311L471.639 42.719ZM474.127 43.9526C473.562 45.6349 473.449 47.0929 473.901 48.3266C474.353 49.5602 475.145 50.4575 476.502 50.9061C477.859 51.3547 478.989 51.2425 480.12 50.4575C481.251 49.6724 482.155 48.4387 482.721 46.5322C483.286 44.8499 483.399 43.3919 482.947 42.1582C482.495 40.8124 481.703 40.0273 480.346 39.5787C479.102 39.1301 477.859 39.2423 476.728 40.0273C475.597 40.7002 474.806 42.0461 474.127 43.9526Z" fill="black"/>
</svg>
